<?xml version="1.0" encoding="utf-8"?>
<!-- Generator: Adobe Illustrator 14.0.0, SVG Export Plug-In . SVG Version: 6.00 Build 43363)  -->
<!DOCTYPE svg PUBLIC "-//W3C//DTD SVG 1.1//EN" "http://www.w3.org/Graphics/SVG/1.1/DTD/svg11.dtd">
<svg version="1.1" id="Layer_1" xmlns="http://www.w3.org/2000/svg" xmlns:xlink="http://www.w3.org/1999/xlink" x="0px" y="0px"
	  viewBox="0 0 40 40" enable-background="new 0 0 40 40" xml:space="preserve">
<g>
	<path d="M33.125,35H6.875c-0.519,0-0.938-0.42-0.938-0.938v-5.75c0-0.518,0.419-0.938,0.938-0.938c0.518,0,0.937,0.421,0.937,0.938
		v4.813h24.375v-4.813c0-0.518,0.419-0.938,0.938-0.938c0.518,0,0.938,0.421,0.938,0.938v5.75C34.063,34.58,33.643,35,33.125,35"/>
	<path d="M20.042,29.249c-0.235,0-0.469-0.089-0.651-0.265l-7.535-7.277c-0.373-0.36-0.383-0.954-0.023-1.326
		c0.358-0.372,0.954-0.384,1.325-0.023l6.884,6.649l6.884-6.649c0.372-0.36,0.968-0.349,1.324,0.023
		c0.36,0.372,0.351,0.966-0.022,1.326l-7.534,7.277C20.512,29.16,20.277,29.249,20.042,29.249"/>
	<path d="M20.042,29.249c-0.518,0-0.938-0.421-0.938-0.939V5.937C19.104,5.418,19.524,5,20.042,5c0.519,0,0.938,0.418,0.938,0.937
		V28.31C20.979,28.828,20.561,29.249,20.042,29.249"/>
</g>
</svg>
