<?xml version="1.0" ?><!DOCTYPE svg  PUBLIC '-//W3C//DTD SVG 1.1//EN'  'http://www.w3.org/Graphics/SVG/1.1/DTD/svg11.dtd'><svg enable-background="new 0 0 128 128" id="Слой_1" version="1.1" viewBox="0 0 128 128" xml:space="preserve" xmlns="http://www.w3.org/2000/svg" xmlns:xlink="http://www.w3.org/1999/xlink"><circle cx="64" cy="64" fill="#F6F3E0" r="62"/><g><g><path d="M44.9,107.3l39.6-19.8c6-3,6-11.5,0-14.5L44.9,53.2c-6.9-3.4-15-3.4-21.8,0L2,63.7c0,0.1,0,0.2,0,0.3    c0,15.3,5.6,29.4,14.8,40.2l6.3,3.1C30,110.8,38,110.8,44.9,107.3z" fill="#E3725D"/></g><g><path d="M34,110.9c3.9,0,7.8-0.9,11.4-2.7L85,88.4c3.1-1.6,5-4.7,5-8.2s-1.9-6.6-5-8.2L45.4,52.3    c-7-3.5-15.7-3.5-22.7,0L2,62.6c0,0.5,0,0.9,0,1.4c0,0.3,0,0.6,0,0.8l21.5-10.8c3.2-1.6,6.8-2.5,10.5-2.5s7.2,0.9,10.5,2.5    l39.6,19.8c2.5,1.2,3.9,3.6,3.9,6.4s-1.5,5.1-3.9,6.4l-39.6,19.8c-6.5,3.2-14.5,3.2-20.9,0l-8.3-4.1c1.1,1.3,2.2,2.7,3.3,3.9l4,2    C26.2,110,30.1,110.9,34,110.9z" fill="#2D2E2D"/></g><g opacity="0.1"><path d="M44.9,99.2l39.6-19.8c1.5-0.8,2.7-1.9,3.4-3.2c-0.7-1.3-1.9-2.4-3.4-3.2L44.9,53.2c-6.9-3.4-15-3.4-21.8,0    L2,63.7c0,0.1,0,0.2,0,0.3c0,10.1,2.4,19.6,6.7,28l14.4,7.2C30,102.6,38,102.6,44.9,99.2z" fill="#040606"/></g><g opacity="0.5"><path d="M44.9,91.1l39.6-19.8c6-3,6-11.5,0-14.5L44.9,36.9c-6.9-3.4-15-3.4-21.8,0L4.6,46.2C2.9,51.8,2,57.8,2,64    c0,6.2,0.9,12.2,2.6,17.8l18.5,9.2C30,94.5,38,94.5,44.9,91.1z" fill="#ECD652"/></g><g><path d="M34,94.6c3.9,0,7.8-0.9,11.4-2.7L85,72.2c3.1-1.6,5-4.7,5-8.2s-1.9-6.6-5-8.2L45.4,36    c-7-3.5-15.7-3.5-22.7,0L5,44.8c-0.3,0.9-0.5,1.7-0.8,2.6l19.3-9.6c3.2-1.6,6.8-2.5,10.5-2.5s7.2,0.9,10.5,2.5l39.6,19.8    c2.5,1.2,3.9,3.6,3.9,6.4s-1.5,5.1-3.9,6.4L44.5,90.2c-6.5,3.2-14.5,3.2-20.9,0L4.2,80.5c0.2,0.9,0.5,1.8,0.8,2.6L22.6,92    C26.2,93.7,30.1,94.6,34,94.6z" fill="#2D2E2D"/></g><g opacity="0.1"><path d="M44.9,82.9l39.6-19.8c1.5-0.8,2.7-1.9,3.4-3.2c-0.7-1.3-1.9-2.4-3.4-3.2L44.9,36.9c-6.9-3.4-15-3.4-21.8,0    L4.6,46.2C2.9,51.8,2,57.8,2,64c0,3,0.2,5.9,0.6,8.7l20.5,10.2C30,86.4,38,86.4,44.9,82.9z" fill="#040606"/></g><g opacity="0.5"><path d="M44.9,74.8L84.5,55c6-3,6-11.5,0-14.5L44.9,20.7c-6.9-3.4-15-3.4-21.8,0l-6.3,3.1C7.6,34.6,2,48.7,2,64    c0,0.1,0,0.2,0,0.3l21.1,10.5C30,78.2,38,78.2,44.9,74.8z" fill="#65C1C2"/></g><g><path d="M34,78.4c3.9,0,7.8-0.9,11.4-2.7L85,55.9c3.1-1.6,5-4.7,5-8.2s-1.9-6.6-5-8.2L45.4,19.8    c-7-3.5-15.7-3.5-22.7,0l-4,2c-1.2,1.3-2.3,2.6-3.3,3.9l8.3-4.1c3.2-1.6,6.8-2.5,10.5-2.5s7.2,0.9,10.5,2.5l39.6,19.8    c2.5,1.2,3.9,3.6,3.9,6.4s-1.5,5.1-3.9,6.4L44.5,73.9c-6.5,3.2-14.5,3.2-20.9,0L2,63.2c0,0.3,0,0.6,0,0.8c0,0.5,0,0.9,0,1.4    l20.6,10.3C26.2,77.5,30.1,78.4,34,78.4z" fill="#2D2E2D"/></g></g></svg>